# xmcd
#
# Track frame offsets:
# 150
# 15912
# 28807
# 41640
# 56025
# 78342
# 97000
# 108712
# 120797
# 132667
# 147975
# 164705
#
# Disc length: 2402 seconds
#
#
# Revision: 4
# Processed by: cddbd v1.5.1PL2 Copyright (c) Steve Scherf et al.
# Submitted via: FreeRIP 2.944 
#
DISCID=a509600c
DTITLE=Altan - Blackwater
DYEAR=1900
DGENRE=Folk
TTITLE0=Johnny Boyle's/King of the Pipers
TTITLE1=Dark Haired lass/Biddy from Muckross/Sean Maguire's
TTITLE2=Stor, A Stor, A Ghra
TTITLE3=Strathspey/ConMcGinley's/The Newfoundland Reel
TTITLE4=Ta Me Mo Shui
TTITLE5=An Gasur Mor/Bunker Hill/Dogs Among the Bushes
TTITLE6=Molly Na gCuach Ni Chuilleanain
TTITLE7=Jenny Picking Cockles/Farewell toLeitrim/John Doherty's
TTITLE8=Ah Bhruach Na Carraige Baine
TTITLE9=The Dance of the Honeybees
TTITLE10=Blackwaterside
TTITLE11=A Tune for Frankie
EXTD=
EXTT0=Jigs
EXTT1=Reels
EXTT2=
EXTT3=
EXTT4=
EXTT5=Hornpipe and reels
EXTT6=
EXTT7=Reels
EXTT8=
EXTT9=Hornpipe
EXTT10=
EXTT11=Jig
PLAYORDER=
